<?xml version="1.0" encoding="UTF-8"?>
<svg id="Layer_2" data-name="Layer 2" xmlns="http://www.w3.org/2000/svg" xmlns:xlink="http://www.w3.org/1999/xlink" viewBox="0 0 822.5 822.5">
  <defs>
    <style>
      .cls-1 {
        stroke: #fff;
        stroke-miterlimit: 10;
        stroke-width: 24.72px;
      }

      .cls-1, .cls-2 {
        fill: none;
      }

      .cls-3 {
        fill: url(#linear-gradient-4);
      }

      .cls-4 {
        fill: url(#linear-gradient-3);
      }

      .cls-2 {
        stroke: url(#linear-gradient-2);
        stroke-linejoin: round;
        stroke-width: 28px;
      }

      .cls-5 {
        fill: url(#linear-gradient);
      }

      .cls-6 {
        fill: #fff;
      }

      .cls-7 {
        fill: #f2f2f2;
      }
    </style>
    <linearGradient id="linear-gradient" x1="186.83" y1="68.49" x2="634.3" y2="751.91" gradientUnits="userSpaceOnUse">
      <stop offset="0" stop-color="#d61394"/>
      <stop offset=".4" stop-color="#a90a96"/>
      <stop offset=".79" stop-color="#840299"/>
      <stop offset="1" stop-color="#76009a"/>
    </linearGradient>
    <linearGradient id="linear-gradient-2" x1="166.04" y1="410.25" x2="656.91" y2="410.25" gradientUnits="userSpaceOnUse">
      <stop offset="0" stop-color="#d33baf"/>
      <stop offset="1" stop-color="#c03eb7"/>
    </linearGradient>
    <linearGradient id="linear-gradient-3" x1="515.67" y1="534.32" x2="613.97" y2="661.91" gradientUnits="userSpaceOnUse">
      <stop offset="0" stop-color="#c32e92"/>
      <stop offset="1" stop-color="#952b97"/>
    </linearGradient>
    <linearGradient id="linear-gradient-4" x1="361.75" y1="345.7" x2="460.04" y2="473.29" xlink:href="#linear-gradient-3"/>
  </defs>
  <g id="Layer_1-2" data-name="Layer 1">
    <g>
      <circle class="cls-5" cx="411.25" cy="411.25" r="411.25"/>
      <path class="cls-2" d="M345.51,221.63h204.49c51.1,0,92.91,42.44,92.91,94.31s-36.94,94.31-82.1,94.31h-82.1M320.51,410.25h-58.37c-45.15,0-82.1,42.44-82.1,94.31s41.81,94.31,92.91,94.31h201.4"/>
      <g>
        <circle class="cls-4" cx="565.4" cy="598.87" r="83.5"/>
        <polyline class="cls-1" points="598.7 570.09 555.6 617.97 531.66 594.03"/>
        <path class="cls-6" d="M565.4,531.83c37.02,0,67.04,30,67.04,67.04s-30.02,67.04-67.04,67.04-67.04-30.02-67.04-67.04,30.02-67.04,67.04-67.04M565.4,498.87c-55.14,0-100,44.86-100,100s44.86,100,100,100,100-44.86,100-100-44.86-100-100-100h0Z"/>
      </g>
      <g>
        <circle class="cls-3" cx="411.47" cy="410.25" r="83.5"/>
        <path class="cls-6" d="M411.48,343.21c37.02,0,67.04,30,67.04,67.04s-30.02,67.04-67.04,67.04-67.04-30.02-67.04-67.04,30.02-67.04,67.04-67.04M411.48,310.25c-55.14,0-100,44.86-100,100s44.86,100,100,100,100-44.86,100-100-44.86-100-100-100h0Z"/>
        <polyline class="cls-1" points="444.77 381.47 401.67 429.35 377.73 405.41"/>
      </g>
      <g id="PureTarget">
        <path class="cls-7" d="M243.15,328.7h-9.16v-18.33h9.16c50.54,0,91.67-41.13,91.67-91.67s-41.13-91.67-91.67-91.67-91.67,41.13-91.67,91.67v110h-18.33v-110c0-60.66,49.34-110,110-110s110,49.34,110,110-49.34,110-110,110"/>
        <path class="cls-7" d="M188.13,328.7h-18.33v-110c0-40.43,32.88-73.35,73.35-73.35s73.35,32.92,73.35,73.35-32.88,73.31-73.35,73.31h-9.16v-18.33h9.16c30.31,0,54.98-24.67,54.98-54.98s-24.67-54.98-54.98-54.98-54.98,24.67-54.98,54.98v110h-.04Z"/>
        <path class="cls-7" d="M224.82,328.7h-18.33v-110c0-20.23,16.46-36.65,36.65-36.65s36.65,16.46,36.65,36.65-16.46,36.65-36.65,36.65h-9.16v-18.33h9.16c10.12,0,18.33-8.21,18.33-18.33s-8.21-18.33-18.33-18.33-18.33,8.21-18.33,18.33c0,0,0,110,0,110Z"/>
      </g>
    </g>
  </g>
</svg>